<?xml version="1.0" encoding="UTF-8" standalone="no"?>
<svg
   xmlns:dc="http://purl.org/dc/elements/1.1/"
   xmlns:cc="http://creativecommons.org/ns#"
   xmlns:rdf="http://www.w3.org/1999/02/22-rdf-syntax-ns#"
   xmlns:svg="http://www.w3.org/2000/svg"
   xmlns="http://www.w3.org/2000/svg"
   xmlns:sodipodi="http://sodipodi.sourceforge.net/DTD/sodipodi-0.dtd"
   xmlns:inkscape="http://www.inkscape.org/namespaces/inkscape"
   width="60"
   height="100"
   viewBox="0 0 15.875 26.458334"
   version="1.1"
   id="svg8"
   inkscape:version="1.0.1 (3bc2e813f5, 2020-09-07)"
   sodipodi:docname="bishopBlack.svg">
  <defs
     id="defs2" />
  <sodipodi:namedview
     id="base"
     pagecolor="#ffffff"
     bordercolor="#666666"
     borderopacity="1.0"
     inkscape:pageopacity="0.0"
     inkscape:pageshadow="2"
     inkscape:zoom="2.9189885"
     inkscape:cx="40.28736"
     inkscape:cy="115.96683"
     inkscape:document-units="mm"
     inkscape:current-layer="layer1"
     inkscape:document-rotation="0"
     showgrid="false"
     units="px"
     showguides="false"
     inkscape:guide-bbox="true"
     inkscape:window-width="1920"
     inkscape:window-height="1017"
     inkscape:window-x="-8"
     inkscape:window-y="-8"
     inkscape:window-maximized="1">
    <sodipodi:guide
       position="6.6504176,1.0807784"
       orientation="0,-1"
       id="guide1060" />
    <sodipodi:guide
       position="7.2830947,3.038841"
       orientation="1,0"
       id="guide1062" />
  </sodipodi:namedview>
  <metadata
     id="metadata5">
    <rdf:RDF>
      <cc:Work
         rdf:about="">
        <dc:format>image/svg+xml</dc:format>
        <dc:type
           rdf:resource="http://purl.org/dc/dcmitype/StillImage" />
        <dc:title></dc:title>
      </cc:Work>
    </rdf:RDF>
  </metadata>
  <g
     inkscape:label="Layer 1"
     inkscape:groupmode="layer"
     id="layer1">
    <g
       id="g3862"
       transform="matrix(8.3245473,0,0,8.3245473,-827.25878,-943.96548)">
      <path
         style="fill:#999999;fill-opacity:1;stroke:none;stroke-width:0.0124548px;stroke-linecap:butt;stroke-linejoin:miter;stroke-opacity:1"
         d="m 99.583189,116.03153 -0.012,0.40225 h 1.554961 v -0.40225 l -0.26417,-0.006 -0.28327,-1.04704 0.3184,-0.38632 -0.19529,-0.2632 -0.11462,0.11462 -0.1101,-0.19071 0.075,-0.1299 -0.16483,-0.2855 -0.585431,0.74196 0.307781,0.40966 -0.246221,1.04221 z"
         id="path3854" />
      <path
         style="fill:#666666;fill-opacity:1;stroke:none;stroke-width:0.0124548px;stroke-linecap:butt;stroke-linejoin:miter;stroke-opacity:1"
         d="m 99.571229,116.43353 h 0.513321 l -0.006,-0.39624 0.16811,-0.072 0.066,-0.74746 0.26606,-0.23954 -0.31409,-0.40285 -0.462791,0.004 0.307781,0.40966 -0.246221,1.04221 -0.28019,2.2e-4 z"
         id="path3856" />
      <path
         style="fill:#666666;fill-opacity:1;stroke:none;stroke-width:0.0124548px;stroke-linecap:butt;stroke-linejoin:miter;stroke-opacity:1"
         d="m 100.47714,114.25263 0.1101,0.19071 -0.0869,0.12905 -0.13208,-0.17861 z"
         id="path3858" />
      <path
         style="fill:none;fill-opacity:1;stroke:#000000;stroke-width:0.0124548px;stroke-linecap:butt;stroke-linejoin:miter;stroke-opacity:1"
         d="m 99.583189,116.03153 -0.012,0.40225 h 1.554961 v -0.40225 l -0.26417,-0.006 -0.28327,-1.04704 0.3184,-0.38632 -0.19529,-0.2632 -0.11462,0.11462 -0.1101,-0.19071 0.075,-0.1299 -0.16483,-0.2855 -0.585431,0.74196 0.307781,0.40966 -0.246221,1.04221 z"
         id="path3860" />
    </g>
  </g>
</svg>
