<?xml version="1.0" encoding="UTF-8" standalone="no"?>
<svg
   xmlns:dc="http://purl.org/dc/elements/1.1/"
   xmlns:cc="http://creativecommons.org/ns#"
   xmlns:rdf="http://www.w3.org/1999/02/22-rdf-syntax-ns#"
   xmlns:svg="http://www.w3.org/2000/svg"
   xmlns="http://www.w3.org/2000/svg"
   xmlns:sodipodi="http://sodipodi.sourceforge.net/DTD/sodipodi-0.dtd"
   xmlns:inkscape="http://www.inkscape.org/namespaces/inkscape"
   width="60"
   height="100"
   viewBox="0 0 15.875 26.458333"
   version="1.1"
   id="svg8"
   inkscape:version="1.0.1 (3bc2e813f5, 2020-09-07)"
   sodipodi:docname="kingBlack.svg">
  <defs
     id="defs2" />
  <sodipodi:namedview
     id="base"
     pagecolor="#ffffff"
     bordercolor="#666666"
     borderopacity="1.0"
     inkscape:pageopacity="0.0"
     inkscape:pageshadow="2"
     inkscape:zoom="4.1280731"
     inkscape:cx="14.739153"
     inkscape:cy="77.820555"
     inkscape:document-units="mm"
     inkscape:current-layer="layer1"
     inkscape:document-rotation="0"
     showgrid="false"
     units="px"
     showguides="true"
     inkscape:guide-bbox="true"
     inkscape:window-width="1920"
     inkscape:window-height="1017"
     inkscape:window-x="-8"
     inkscape:window-y="-8"
     inkscape:window-maximized="1">
    <sodipodi:guide
       position="6.6504176,1.0807784"
       orientation="0,-1"
       id="guide1060" />
    <sodipodi:guide
       position="7.2830947,3.038841"
       orientation="1,0"
       id="guide1062" />
  </sodipodi:namedview>
  <metadata
     id="metadata5">
    <rdf:RDF>
      <cc:Work
         rdf:about="">
        <dc:format>image/svg+xml</dc:format>
        <dc:type
           rdf:resource="http://purl.org/dc/dcmitype/StillImage" />
        <dc:title></dc:title>
      </cc:Work>
    </rdf:RDF>
  </metadata>
  <g
     inkscape:label="Layer 1"
     inkscape:groupmode="layer"
     id="layer1">
    <g
       id="g3182"
       transform="matrix(8.3425171,0,0,8.3425171,-864.22602,-928.6073)">
      <path
         style="fill:#999999;fill-opacity:1;stroke:none;stroke-width:0.0124548px;stroke-linecap:butt;stroke-linejoin:miter;stroke-opacity:1"
         d="m 104.33747,113.01691 -0.27918,0.92156 h -0.27016 v 0.42026 h 1.54895 v -0.41726 h -0.26716 l -0.28518,-0.92757 0.29718,-0.60337 c -0.38521,-0.28431 -0.72935,-0.23502 -1.05064,0 z"
         id="path3101"
         sodipodi:nodetypes="ccccccccccc" />
      <path
         style="fill:#666666;fill-opacity:1;stroke:none;stroke-width:0.0124548px;stroke-linecap:butt;stroke-linejoin:miter;stroke-opacity:1"
         d="m 103.78808,113.9389 v 0.42026 l 0.50912,-0.007 -0.004,-0.41179 0.14009,-0.0722 0.0976,-0.63679 0.25401,-0.21751 -0.20731,-0.007 -0.14009,-0.59434 -0.40606,-0.002 0.30619,0.60638 -0.27918,0.92156 z"
         id="path3103" />
      <path
         style="fill:none;fill-opacity:1;stroke:#000000;stroke-width:0.0124548px;stroke-linecap:butt;stroke-linejoin:miter;stroke-opacity:1"
         d="m 104.33747,113.01691 -0.27918,0.92156 h -0.27016 v 0.42026 h 1.54895 v -0.41726 h -0.26716 l -0.28518,-0.92757 0.29718,-0.60337 c -0.38521,-0.28431 -0.72935,-0.23502 -1.05064,0 z"
         id="path3105"
         sodipodi:nodetypes="ccccccccccc" />
      <path
         style="fill:#999999;fill-opacity:1;stroke:#666666;stroke-width:0.0124548px;stroke-linecap:butt;stroke-linejoin:miter;stroke-opacity:1"
         d="m 104.5506,111.52496 0.006,0.58536 h 0.13208 l -0.051,-0.27017 0.18011,0.033 -0.003,-0.21913 -0.17711,0.042 0.045,-0.1741 z"
         id="path3109" />
      <path
         style="fill:#666666;fill-opacity:1;stroke:none;stroke-width:0.012455px;stroke-linecap:butt;stroke-linejoin:miter;stroke-opacity:1"
         d="m 104.57551,111.52496 -0.006,0.58536 h -0.13209 l 0.051,-0.27017 -0.18011,0.033 0.003,-0.21913 0.17711,0.042 -0.045,-0.1741 z"
         id="path3111" />
      <path
         id="path3113"
         style="fill:none;fill-opacity:1;stroke:#000000;stroke-width:0.0124548px;stroke-linecap:butt;stroke-linejoin:miter;stroke-opacity:1"
         d="m 104.44349,111.52189 0.045,0.17415 -0.17725,-0.0419 -0.003,0.21911 0.18035,-0.0331 -0.0512,0.27027 h 0.11937 0.0129 0.11886 l -0.0506,-0.27027 0.17984,0.0331 -0.003,-0.21911 -0.17674,0.0419 0.045,-0.17415 -0.11989,0.003 z" />
    </g>
  </g>
</svg>
