<?xml version="1.0" encoding="UTF-8" standalone="no"?>
<svg
   xmlns:dc="http://purl.org/dc/elements/1.1/"
   xmlns:cc="http://creativecommons.org/ns#"
   xmlns:rdf="http://www.w3.org/1999/02/22-rdf-syntax-ns#"
   xmlns:svg="http://www.w3.org/2000/svg"
   xmlns="http://www.w3.org/2000/svg"
   xmlns:sodipodi="http://sodipodi.sourceforge.net/DTD/sodipodi-0.dtd"
   xmlns:inkscape="http://www.inkscape.org/namespaces/inkscape"
   width="60"
   height="100"
   viewBox="0 0 15.875 26.458334"
   version="1.1"
   id="svg8"
   inkscape:version="1.0.1 (3bc2e813f5, 2020-09-07)"
   sodipodi:docname="kingWhite.svg">
  <defs
     id="defs2">
    <inkscape:perspective
       sodipodi:type="inkscape:persp3d"
       inkscape:vp_x="0 : 13.229167 : 1"
       inkscape:vp_y="0 : 1000 : 0"
       inkscape:vp_z="26.458333 : 13.229167 : 1"
       inkscape:persp3d-origin="13.229166 : 8.8194447 : 1"
       id="perspective1269" />
  </defs>
  <sodipodi:namedview
     id="base"
     pagecolor="#ffffff"
     bordercolor="#666666"
     borderopacity="1.0"
     inkscape:pageopacity="0.0"
     inkscape:pageshadow="2"
     inkscape:zoom="5.1236797"
     inkscape:cx="73.602889"
     inkscape:cy="79.035463"
     inkscape:document-units="mm"
     inkscape:current-layer="layer1"
     inkscape:document-rotation="0"
     showgrid="false"
     units="px"
     showguides="false"
     inkscape:guide-bbox="true"
     inkscape:window-width="1920"
     inkscape:window-height="1017"
     inkscape:window-x="-8"
     inkscape:window-y="-8"
     inkscape:window-maximized="1">
    <sodipodi:guide
       position="1.2818733,0.019696788"
       orientation="0,-1"
       id="guide1060" />
    <sodipodi:guide
       position="7.2830947,3.038841"
       orientation="1,0"
       id="guide1062" />
    <sodipodi:guide
       position="0,7.1981874"
       orientation="1,0"
       id="guide16" />
  </sodipodi:namedview>
  <metadata
     id="metadata5">
    <rdf:RDF>
      <cc:Work
         rdf:about="">
        <dc:format>image/svg+xml</dc:format>
        <dc:type
           rdf:resource="http://purl.org/dc/dcmitype/StillImage" />
        <dc:title></dc:title>
      </cc:Work>
    </rdf:RDF>
  </metadata>
  <g
     inkscape:label="Layer 1"
     inkscape:groupmode="layer"
     id="layer1">
    <g
       id="g3946"
       transform="matrix(8.3425086,0,0,8.3425086,-753.68019,-910.01769)">
      <g
         id="g3944"
         transform="translate(1.769401,-0.90950521)">
        <g
           id="g3934"
           transform="translate(-3.9068565,-2.3644616)">
          <path
             style="fill:#cecece;fill-opacity:1;stroke:none;stroke-width:0.0124548px;stroke-linecap:butt;stroke-linejoin:miter;stroke-opacity:1"
             d="m 93.214653,114.12809 -0.279172,0.92156 h -0.270166 v 0.42026 h 1.54895 v -0.41726 h -0.267163 l -0.285175,-0.92757 0.297182,-0.60337 c -0.385208,-0.28431 -0.729355,-0.23502 -1.050644,0 z"
             id="path3928"
             sodipodi:nodetypes="ccccccccccc" />
          <path
             style="fill:#54c5c5;fill-opacity:1;stroke:none;stroke-width:0.0124548px;stroke-linecap:butt;stroke-linejoin:miter;stroke-opacity:1"
             d="m 92.665271,115.05008 v 0.42026 l 0.509116,-0.007 -0.0042,-0.41179 0.140094,-0.0722 0.09764,-0.63679 0.254006,-0.21751 -0.207309,-0.007 -0.140094,-0.59434 -0.406059,-0.002 0.306188,0.60638 -0.279172,0.92156 z"
             id="path3930" />
          <path
             style="fill:none;fill-opacity:1;stroke:#000000;stroke-width:0.0124548px;stroke-linecap:butt;stroke-linejoin:miter;stroke-opacity:1"
             d="m 93.214653,114.12809 -0.279172,0.92156 h -0.270166 v 0.42026 h 1.54895 v -0.41726 h -0.267163 l -0.285175,-0.92757 0.297182,-0.60337 c -0.385208,-0.28431 -0.729355,-0.23502 -1.050644,0 z"
             id="path3932"
             sodipodi:nodetypes="ccccccccccc" />
        </g>
        <g
           id="g3942"
           transform="translate(-2.8272403,-2.9579941)">
          <path
             style="fill:#cecece;fill-opacity:1;stroke:none;stroke-width:0.0124548px;stroke-linecap:butt;stroke-linejoin:miter;stroke-opacity:1"
             d="m 92.348168,113.22967 0.006,0.58536 h 0.132081 l -0.05103,-0.27017 0.180111,0.033 -0.003,-0.21913 -0.177109,0.042 0.04503,-0.1741 z"
             id="path3936" />
          <path
             style="fill:#54c5c5;fill-opacity:1;stroke:none;stroke-width:0.012455px;stroke-linecap:butt;stroke-linejoin:miter;stroke-opacity:1"
             d="m 92.373077,113.22967 -0.006,0.58536 h -0.132084 l 0.05103,-0.27017 -0.180115,0.033 0.003,-0.21913 0.177112,0.042 -0.04503,-0.1741 z"
             id="path3938" />
          <path
             id="path3940"
             style="fill:none;fill-opacity:1;stroke:#000000;stroke-width:0.0124548px;stroke-linecap:butt;stroke-linejoin:miter;stroke-opacity:1"
             d="m 92.241062,113.2266 0.04496,0.17415 -0.177249,-0.0419 -0.0031,0.21911 0.18035,-0.0331 -0.05116,0.27027 h 0.119372 0.01292 0.118856 l -0.05064,-0.27027 0.179835,0.0331 -0.0031,-0.21911 -0.176734,0.0419 0.04496,-0.17415 -0.119888,0.003 z" />
        </g>
      </g>
    </g>
  </g>
</svg>
