<?xml version="1.0" encoding="UTF-8" standalone="no"?>
<svg
   xmlns:dc="http://purl.org/dc/elements/1.1/"
   xmlns:cc="http://creativecommons.org/ns#"
   xmlns:rdf="http://www.w3.org/1999/02/22-rdf-syntax-ns#"
   xmlns:svg="http://www.w3.org/2000/svg"
   xmlns="http://www.w3.org/2000/svg"
   xmlns:sodipodi="http://sodipodi.sourceforge.net/DTD/sodipodi-0.dtd"
   xmlns:inkscape="http://www.inkscape.org/namespaces/inkscape"
   width="60"
   height="100"
   viewBox="0 0 15.875 26.458334"
   version="1.1"
   id="svg8"
   inkscape:version="1.0.1 (3bc2e813f5, 2020-09-07)"
   sodipodi:docname="knightBlack.svg">
  <defs
     id="defs2" />
  <sodipodi:namedview
     id="base"
     pagecolor="#ffffff"
     bordercolor="#666666"
     borderopacity="1.0"
     inkscape:pageopacity="0.0"
     inkscape:pageshadow="2"
     inkscape:zoom="4.1280731"
     inkscape:cx="40.806663"
     inkscape:cy="85.849289"
     inkscape:document-units="mm"
     inkscape:current-layer="layer1"
     inkscape:document-rotation="0"
     showgrid="false"
     units="px"
     showguides="true"
     inkscape:guide-bbox="true"
     inkscape:window-width="1920"
     inkscape:window-height="1017"
     inkscape:window-x="-8"
     inkscape:window-y="-8"
     inkscape:window-maximized="1">
    <sodipodi:guide
       position="6.6504176,1.0807784"
       orientation="0,-1"
       id="guide1060" />
    <sodipodi:guide
       position="7.2830947,3.038841"
       orientation="1,0"
       id="guide1062" />
  </sodipodi:namedview>
  <metadata
     id="metadata5">
    <rdf:RDF>
      <cc:Work
         rdf:about="">
        <dc:format>image/svg+xml</dc:format>
        <dc:type
           rdf:resource="http://purl.org/dc/dcmitype/StillImage" />
        <dc:title></dc:title>
      </cc:Work>
    </rdf:RDF>
  </metadata>
  <g
     inkscape:label="Layer 1"
     inkscape:groupmode="layer"
     id="layer1">
    <g
       id="g3828"
       transform="matrix(8.3233951,0,0,8.3233951,-797.94756,-927.84351)">
      <path
         style="fill:#999999;fill-opacity:1;stroke:none;stroke-width:0.0124548px;stroke-linecap:butt;stroke-linejoin:miter;stroke-opacity:1"
         d="m 96.019057,114.10026 v 0.41425 h 1.55496 v -0.42026 h -0.44427 l 0.3332,-0.28818 -0.67541,-0.6664 c 0.21221,-0.0588 0.39198,-0.08 0.45327,0.036 l 0.24315,-0.30019 -0.88854,-0.58536 c -0.12376,0.21696 -0.930925,0.48563 -0.29118,1.32982 l -0.19812,0.18611 0.34703,0.29608 z"
         id="path3820"
         sodipodi:nodetypes="cccccccccccccc" />
      <path
         id="path3822"
         style="fill:#666666;fill-opacity:1;stroke:none;stroke-width:0.0124548px;stroke-linecap:butt;stroke-linejoin:miter;stroke-opacity:1"
         d="m 96.394297,112.48526 -0.005,9e-4 c -0.24668,0.20664 -0.55319,0.51608 -0.0851,1.13381 l -0.19813,0.18611 0.34703,0.29607 -0.4341,-0.002 v 0.41424 l 0.59438,-0.006 0.0661,-0.41126 0.26415,-0.06 0.0901,-0.23416 c -0.89426,-0.23493 -0.85314,-0.75047 -0.63939,-1.31781 z" />
      <path
         style="fill:#666666;fill-opacity:1;stroke:none;stroke-width:0.0124548px;stroke-linecap:butt;stroke-linejoin:miter;stroke-opacity:1"
         d="m 96.594297,112.9432 -0.017,0.39481 0.39481,-0.017 z"
         id="path3824" />
      <path
         style="fill:none;fill-opacity:1;stroke:#000000;stroke-width:0.0124548px;stroke-linecap:butt;stroke-linejoin:miter;stroke-opacity:1"
         d="m 96.019057,114.10026 v 0.41425 h 1.55496 v -0.42026 h -0.44427 l 0.3332,-0.28818 -0.67541,-0.6664 c 0.21221,-0.0588 0.39198,-0.08 0.45327,0.036 l 0.24315,-0.30019 -0.88854,-0.58536 c -0.12376,0.21696 -0.930925,0.48563 -0.29118,1.32982 l -0.19812,0.18611 0.34703,0.29608 z"
         id="path3826"
         sodipodi:nodetypes="cccccccccccccc" />
    </g>
  </g>
</svg>
