<?xml version="1.0" encoding="UTF-8" standalone="no"?>
<svg
   xmlns:dc="http://purl.org/dc/elements/1.1/"
   xmlns:cc="http://creativecommons.org/ns#"
   xmlns:rdf="http://www.w3.org/1999/02/22-rdf-syntax-ns#"
   xmlns:svg="http://www.w3.org/2000/svg"
   xmlns="http://www.w3.org/2000/svg"
   xmlns:sodipodi="http://sodipodi.sourceforge.net/DTD/sodipodi-0.dtd"
   xmlns:inkscape="http://www.inkscape.org/namespaces/inkscape"
   width="70"
   height="20"
   viewBox="0 0 18.520833 5.2916666"
   version="1.1"
   id="svg8"
   inkscape:version="1.0.1 (3bc2e813f5, 2020-09-07)"
   sodipodi:docname="logo.svg">
  <defs
     id="defs2" />
  <sodipodi:namedview
     id="base"
     pagecolor="#ffffff"
     bordercolor="#666666"
     borderopacity="1.0"
     inkscape:pageopacity="0.0"
     inkscape:pageshadow="2"
     inkscape:zoom="54.068126"
     inkscape:cx="17.423491"
     inkscape:cy="5.5281736"
     inkscape:document-units="mm"
     inkscape:current-layer="layer1"
     inkscape:document-rotation="0"
     showgrid="false"
     inkscape:window-width="1346"
     inkscape:window-height="1040"
     inkscape:window-x="26"
     inkscape:window-y="0"
     inkscape:window-maximized="0"
     units="px" />
  <metadata
     id="metadata5">
    <rdf:RDF>
      <cc:Work
         rdf:about="">
        <dc:format>image/svg+xml</dc:format>
        <dc:type
           rdf:resource="http://purl.org/dc/dcmitype/StillImage" />
        <dc:title />
      </cc:Work>
    </rdf:RDF>
  </metadata>
  <g
     inkscape:label="Layer 1"
     inkscape:groupmode="layer"
     id="layer1">
    <path
       style="fill:#ffffff;fill-opacity:1;stroke:none;stroke-width:0.0115037"
       d="m 4.3874929,4.5675536 -0.025622,-0.00228 C 4.5754487,4.1804107 4.1911444,3.7327335 3.8018069,3.6981052 3.7140299,3.6902952 3.6274071,3.7073332 3.545289,3.737593 3.515523,3.7485689 3.460207,3.7884314 3.4278058,3.7743503 3.3842328,3.7553963 3.3918518,3.6635652 3.3849118,3.6252332 3.3509588,3.4375196 3.2863198,3.3424449 3.1033139,3.4381244 3.0615759,3.4599511 3.0216799,3.4854531 2.9835141,3.5129276 2.9159241,3.4375477 2.8188722,3.3970744 2.7550178,3.3136189 2.6364641,3.1586882 2.6157213,2.8665215 2.6698708,2.6844527 l 0.1943452,0.2108657 0.086729,0.1018127 -0.1172726,0.3423494 -0.039171,-0.024146 -0.00604,0.00979 0.143134,0.074717 -0.00604,0.00979 -0.064793,-0.026426 -0.00604,0.00979 c 0.1133038,0.102613 0.1812062,0.065131 0.2961927,-0.020126 -0.014837,-0.1104708 0.085692,-0.265883 0.1182638,-0.3730492 0.012339,-0.040624 0.023604,-0.098141 0.056396,-0.1273999 0.063745,-0.056869 0.1715733,-0.06674 0.2115638,-0.1521577 0.036549,-0.07808 -0.06251,-0.1042492 -0.067303,-0.1686226 C 3.4642357,2.4765551 3.5377827,2.3479543 3.5684917,2.27891 3.6123557,2.296232 3.7040251,2.323887 3.7360234,2.27349 3.7726974,2.2157132 3.7248354,2.1468046 3.7638954,2.0885028 3.9000717,1.8852124 4.036929,1.6937745 4.1565507,1.4792389 4.2037887,1.3945389 4.2786905,1.2891396 4.2724974,1.1866347 4.2641574,1.0483318 4.0219797,1.0012597 4.0227582,0.83987236 c 5.928e-4,-0.1252226 0.092802,-0.2625979 0.1729171,-0.3500372 0.036969,-0.040331 0.1274794,-0.111333 0.1365993,-0.1667069 0.00793,-0.04809 -0.1042848,-0.131186 -0.1485187,-0.1162723 -0.071831,0.024213 -0.1555926,0.1875232 -0.1948814,0.2500986 l -0.019585,-0.012073 0.1600295,-0.347304 -0.2554133,-0.089873 -0.1162991,0.3202061 -0.045207,-0.014353 c 0.00952,-0.064972 0.038095,-0.2219248 0.00493,-0.2796282 -0.02645,-0.046011 -0.1608207,-0.036992 -0.1866728,0.00602 -0.02611,0.043432 -0.014755,0.1153327 -0.018007,0.1639934 -0.00843,0.1262424 -0.00992,0.272655 -0.074846,0.3857668 -0.046521,0.081038 -0.1538189,0.034409 -0.2095319,0.1146182 -0.1684017,-0.098921 -0.2089724,0.059761 -0.2537346,0.1949459 C 2.8872513,1.162877 2.8870033,1.4256723 2.8424425,1.6962333 2.8299155,1.7722823 2.7350551,1.7881473 2.7244719,1.8637186 2.7131169,1.9447736 2.8281137,1.9519696 2.843977,2.016141 2.862492,2.0910274 2.770127,2.2148904 2.751547,2.2888566 2.671122,2.2801186 2.5842216,2.2844726 2.5532818,2.3693468 2.4853708,2.2906742 2.275746,2.0974708 2.1639261,2.1104626 c -0.05651,0.00657 -0.1109338,0.053471 -0.1558813,0.084954 -0.116197,0.081389 -0.2328284,0.1642936 -0.3268074,0.2715269 -0.2713385,0.30957 -0.4735107,0.6459242 -0.5849896,1.0448179 -0.032007,0.1145145 -0.096074,0.3136593 -0.047149,0.4291831 0.045172,0.106683 0.2648844,0.1948873 0.3678674,0.2279758 -0.06135,0.095076 -0.2089874,0.1926789 -0.2070617,0.3159614 0.00101,0.06553 0.048042,0.1169796 0.085716,0.1658922 0.1023083,0.1328352 0.2323119,0.248715 0.3739533,0.3360253 0.2919983,0.1799929 0.6407815,0.2969338 0.986478,0.3069449 0.1402606,0.00407 0.3091053,0.00466 0.4121604,-0.1069669 0.086891,-0.094116 0.082633,-0.2785253 0.098242,-0.3989048 0.01411,-0.10883 0.00838,-0.1873063 -0.017133,-0.2943469 0.04384,0.1007806 0.075263,0.1947722 0.1541912,0.2760066 0.2620242,0.2697198 0.6945406,0.2491795 0.9544295,-0.00189 0.054335,-0.052494 0.090031,-0.1359905 0.1295393,-0.2000838 m -0.678501,0.311495 c 0.068879,-0.022042 0.141916,-0.00185 0.2129373,-0.018649 C 4.0671857,4.8260301 4.2996355,4.6330033 4.2624566,4.463463 4.0991319,4.9583316 3.2955835,4.6681471 3.4932518,4.1649888 3.5227968,4.0897808 3.5812778,4.0247206 3.642389,3.9731338 3.717628,3.9096199 3.812835,3.8814415 3.9101827,3.8949614 l 0.00604,-0.00979 C 3.6482104,3.735433 3.4007925,3.8891254 3.2445617,4.1197972 3.2765817,3.9194116 3.6142675,3.7493075 3.794409,3.7758628 4.1989419,3.8354791 4.4773568,4.2229518 4.3018957,4.6093931 4.2568317,4.7086421 4.1591483,4.7799434 4.0641009,4.8276793 3.945087,4.8874533 3.8391043,4.9150843 3.7089834,4.8790513 m 0.3941038,-0.946265 -0.00604,0.00979 C 4.2529658,4.0571895 4.2396526,4.2127002 4.3228198,4.3655343 4.3684298,4.1965932 4.2398168,4.0186382 4.1030836,3.932786 M 3.003381,5.1468154 2.993591,5.1407754 3.064814,4.6306205 3.116057,4.6351805 C 3.087766,4.7886359 3.10056,5.0205373 3.0033833,5.1468129 M 3.1493231,4.4935242 3.0944551,4.2975389 c 0.048659,0.052007 0.058597,0.126567 0.054868,0.1959853 m -0.118316,-0.00537 C 3.0174763,4.2716499 2.8387035,4.4440748 2.6889453,4.3854101 2.6580746,4.570207 2.5405004,4.5070567 2.402833,4.4549531 2.1738883,4.3682874 1.9750367,4.25159 1.7848031,4.0983535 c 0.037,-0.03545 0.1092609,-0.07884 0.1633052,-0.065648 0.09091,0.022201 0.2095392,0.1494749 0.2948928,0.1992365 0.1243928,0.072543 0.2576614,0.088178 0.3909444,0.133079 l 0.00604,-0.00979 C 2.384411,4.2690961 2.1954043,4.1631297 1.9672392,4.0216198 c 0.064166,-0.030325 0.1208977,0.060104 0.1725361,0.092787 0.169425,0.1072605 0.3373715,0.1575964 0.522072,0.227273 l -0.03233,-0.1010112 -0.00456,0.051243 C 2.3972465,4.2761566 2.2038652,4.1187102 2.0207618,4.000558 2.0542678,3.97536 2.0887068,3.956562 2.1305773,3.976196 c 0.07713,0.036138 0.1436552,0.1053081 0.2207265,0.1458163 0.092776,0.048769 0.1909743,0.069868 0.2902848,0.099071 L 2.6221358,4.0334145 2.5986628,4.1811086 2.1436393,3.9546788 c 0.1295389,-0.085056 0.2621853,-0.052562 0.3891656,0.00443 0.042573,0.019108 0.1190392,0.047094 0.1400685,0.092449 0.041084,0.088609 -0.049195,0.2291905 0.044801,0.3091724 0.088301,0.075147 0.2683463,-0.046575 0.3609614,-0.059432 l -0.033938,0.033134 c 0.027431,0.053977 0.022268,0.1052546 -0.01368,0.1537309 M 2.5526666,5.2203313 C 2.1708234,5.1491742 1.8175222,5.0282722 1.5157258,4.7760227 1.4241799,4.6994975 1.275571,4.6104464 1.2794161,4.4754778 1.2823861,4.37109 1.4056907,4.2620974 1.4719781,4.1893089 l 0.00979,0.00604 -0.1621784,0.1973301 0.1855296,-0.1800982 0.23139,-0.035882 c 0.2530212,0.25344 0.5839203,0.3197489 0.9002544,0.4468232 l -0.00604,0.00979 C 2.4117359,4.5984416 2.2215528,4.5629805 2.0211723,4.4602735 l -0.00604,0.00979 0.4512672,0.2106012 c -0.022684,0.099477 -0.012278,0.2739602 -0.087806,0.3512825 -0.063697,0.06521 -0.1587256,0.040768 -0.2334856,0.016482 C 1.9578621,4.9876035 1.7857232,4.9097375 1.618474,4.8066422 l -0.00604,0.00979 c 0.1718617,0.1059386 0.3431048,0.2083202 0.5378018,0.2675234 0.1108655,0.033718 0.3196799,0.055002 0.4024272,0.1363733 M 3.3661017,3.8568686 3.2062033,4.028577 3.1768253,4.0104672 C 3.2053113,3.9645397 3.3030181,3.8157665 3.3661017,3.8568685 m -0.2354188,0.3819147 -0.019585,-0.012073 0.012073,-0.019585 0.019585,0.012073 -0.012073,0.019585 m -0.086658,-0.012877 c -0.088832,0.049689 -0.2036461,0.104741 -0.3067886,0.081163 l 0.3030323,-0.096992 0.00376,0.015829 M 2.8474988,3.9966553 C 2.8881568,3.9173243 2.9197748,3.8355576 2.9667502,3.7593509 2.9953632,3.7129339 3.0242062,3.6691449 3.0582612,3.6265695 3.0983602,3.5764485 3.1527082,3.4964355 3.226251,3.4964978 3.306208,3.496559 3.3270187,3.676249 3.318714,3.7330626 3.311244,3.7841356 3.26328,3.8185416 3.230008,3.8540594 3.131021,3.9597053 3.0022758,4.0441974 2.847499,3.9966553 M 3.4958415,2.68909 3.4913315,2.6818 l 0.00451,0.00729 m -0.013587,0.036665 -0.021865,0.013549 -0.00979,-0.00604 0.031658,-0.00751 m -0.4398519,0.6477936 0.1442008,-0.3435481 0.019585,0.012073 c -0.039688,0.071158 -0.07421,0.32688 -0.1637861,0.3314754 m -0.3267683,0.595877 -0.1823046,-0.098862 0.00604,-0.00979 0.1762682,0.1086545 m 0.7228892,-1.2165726 -0.00376,-0.015829 0.00376,0.015829 m -0.021865,0.013549 -0.00376,-0.015829 0.00376,0.015829 m -0.021865,0.013549 -0.00376,-0.015829 0.00376,0.015829 m 0.3040987,-0.515258 -0.014221,-0.1303887 0.014221,0.1303887 m -0.8126312,1.29639 C 2.7563601,3.5934002 2.6790413,3.6910785 2.5623193,3.7339677 2.5237723,3.7481395 2.4757663,3.7265337 2.437262,3.7195025 2.342152,3.7021189 2.213447,3.7217435 2.1293528,3.6709464 2.0133452,3.6008701 1.9961361,3.4509498 2.0303268,3.3307675 2.0904168,3.1195498 2.2106993,2.9624758 2.3586905,2.8034417 2.4160765,2.7417609 2.4676563,2.6657573 2.5500862,2.6376355 c 0.00719,0.223476 0.010596,0.5336436 0.1313331,0.729623 0.051626,0.083783 0.151216,0.1148338 0.2048485,0.1938266 m 0.060402,-0.1564577 -0.00451,-0.00729 0.00451,0.00729 M 3.6063357,2.086015 C 3.9077026,1.9177801 4.025671,1.5064944 4.1887805,1.2288192 4.2183745,1.2981632 4.1393975,1.3889492 4.1113755,1.4513776 4.0302715,1.6321016 3.924106,1.8076203 3.8003333,1.9623538 3.7455943,2.0307888 3.7053673,2.1160194 3.6063353,2.086015 M 3.3406034,2.6924885 C 3.2986954,2.6841825 3.2443074,2.6593598 3.2018965,2.6686634 3.1362275,2.6830764 3.0936911,2.750965 3.02455,2.7620888 2.8877404,2.7840958 2.7114428,2.6199359 2.6541801,2.5126106 l 0.00604,-0.00979 0.036891,0.049768 0.00604,-0.00979 -0.054196,-0.087462 0.00148,0.041451 -0.04588,-0.1228764 0.5062671,0.2309902 0.00604,-0.00979 -0.5100234,-0.2468189 c 0.1119561,-0.037854 0.1415657,0.041439 0.2308241,0.085918 0.1494149,0.07448 0.3009395,0.1233958 0.4585514,0.1768613 l -0.00604,0.00979 -0.1672794,-0.035546 -0.00604,0.00979 0.2237556,0.097386 M 4.2106528,1.2152711 c -0.04908,-0.02004 -0.056985,-0.046217 -0.048159,-0.097254 0.038291,0.027808 0.050118,0.049815 0.048159,0.097254 M 3.5512117,2.241221 C 3.3471477,2.1834464 3.133996,2.1190836 2.9522505,2.007147 2.9049305,1.9780048 2.8122514,1.9428222 2.7828831,1.8945975 2.7568411,1.8518285 2.8752481,1.7772885 2.8776451,1.7179141 2.8893981,1.4265215 2.9105381,1.0491575 3.0654505,0.79313236 l 0.1370975,0.084509 0.012073,-0.019585 -0.1529267,-0.080753 c 0.056503,-0.081316 0.1047321,-0.038587 0.1816372,-0.00967 0.1307272,0.049157 0.2563157,0.1104201 0.3851866,0.164342 0.072418,0.0303 0.1410684,0.049151 0.1044425,0.13748484 L 3.2402429,0.86033516 3.2281699,0.87992016 C 3.4454072,1.0113602 3.7208791,1.1120127 3.9665089,1.172882 L 3.9604689,1.182672 3.7321532,1.13653 C 3.6906762,1.3591404 3.6180255,1.6099401 3.5070683,1.8086003 l -0.00979,-0.00604 0.1511725,-0.5960088 -0.00979,-0.00604 C 3.5719058,1.3985806 3.5154021,1.6049012 3.4599822,1.8065923 3.4457782,1.8583103 3.4331892,1.9942671 3.3772662,2.0182556 3.3039832,2.049691 3.094547,1.9184425 3.0307253,1.8798316 l -0.00604,0.00979 c 0.086333,0.05223 0.1755742,0.1170376 0.2654287,0.1613175 0.052414,0.025835 0.1201911,0.039547 0.1081699,0.1095158 -0.1845696,-0.042419 -0.3715828,-0.1344545 -0.531889,-0.23327 l -0.00604,0.00979 0.4734121,0.2185213 0.2174395,0.085709 M 2.7454154,3.4607305 C 2.5750616,3.3168965 2.6029489,3.0975444 2.5310432,2.9096658 c -0.00988,0.2222925 0.036558,0.4181053 0.2022994,0.5706501 l 0.012073,-0.019585 m 1.3070732,-2.3835095 -0.00376,-0.015829 0.00376,0.015829 m -0.00751,-0.031659 -0.018781,-0.079145 0.018781,0.079145 M 3.1274495,2.53405 2.7861818,2.3642275 2.9002007,2.0696433 3.2112864,2.2884291 3.1274494,2.53405 m 0.3773395,-0.6998407 -0.00376,-0.015829 0.00376,0.015829 M 3.942492,1.0364421 3.913114,1.0183331 l 0.00604,-0.00979 0.023342,0.027902 M 2.2100553,3.8469445 1.7660377,4.0191939 1.7562477,4.0131539 C 1.8499727,3.9456839 2.0942006,3.7808088 2.210058,3.8469412 m 1.7634263,-2.92653544 -0.039171,-0.024146 0.00604,-0.00979 0.045207,0.014353 -0.012073,0.019585 m -0.076193,0.10168334 -0.039171,-0.024146 0.00604,-0.00979 0.033135,0.033939 m 0.055132,-0.15520694 -0.078404,-0.092364 -0.2959977,-0.111397 c 0.065718,0.045597 0.1947316,0.047089 0.2154388,0.1328004 -0.065692,-0.024791 -0.2875443,-0.065853 -0.3174863,-0.1297213 -0.016539,-0.035276 0.022079,-0.1057952 0.03292,-0.1402856 0.030149,-0.095999 0.046057,-0.1914994 0.052753,-0.2918086 0.00283,-0.042453 -0.01099,-0.1157902 0.013929,-0.1523148 0.023824,-0.0349 0.078758,-0.021485 0.1121662,-0.013203 -0.00137,0.056965 -0.057114,0.3364143 0.062519,0.3018033 0.076726,-0.0222 0.1197865,-0.250318 0.1507713,-0.3189771 0.041758,0.00848 0.1238622,0.017631 0.1438808,0.062237 0.050172,0.1117906 -0.2351004,0.3441951 -0.022876,0.3772204 -0.044306,0.021738 -0.081041,0.00169 -0.1220724,-0.021193 L 4.0381373,0.13592866 C 3.8491471,0.02491536 3.8408354,0.29073066 3.7703878,0.41683256 3.6258564,0.36227256 3.6426991,0.23758966 3.6696403,0.09797126 l -0.085182,0.028574 0.063316,-0.015025 0.010572,0.2701473 0.1195535,0.066823 0.1283717,-0.3397914 0.1099996,0.040778 c -0.043911,0.078625 -0.1205899,0.2231213 -0.1216087,0.3138465 -0.00196,0.1745611 0.180254,0.034184 0.2246366,-0.020607 l 0.00979,0.00604 c -0.064682,0.1047784 -0.1860726,0.2507811 -0.1683463,0.3827183 0.0465,-0.1850938 0.1511027,-0.3518947 0.2859899,-0.4858778 l -0.082098,-0.06412 c 0.039077,-0.040835 0.089287,0.014443 0.1197923,0.046815 -0.1648843,0.1637929 -0.2164157,0.3475566 -0.3320007,0.5385976 M 3.8422953,1.0017074 3.6185394,0.9043214 l 0.00604,-0.00979 0.2177194,0.1071785 M 2.73026,2.5865167 2.714431,2.5902767 2.73026,2.5865167 m -0.022091,-0.022631 -0.00854,-7.47e-4 0.00854,7.47e-4 m 1.1335882,-1.84629544 -0.1710354,-0.051375 0.1710354,0.051375 m -0.072437,0.1175119 -0.3691694,-0.1464807 0.00604,-0.00979 0.375206,0.1366883 -0.012073,0.019585 m -0.073913,0.076061 -0.4279256,-0.1826994 c 0.079205,-0.100606 0.3567822,0.07483 0.4603877,0.1081143 l -0.032462,0.074585 M 2.5923616,2.5690824 C 2.428622,2.6159894 2.3269722,2.7549807 2.2223286,2.8815321 1.9678276,3.1893052 1.8274382,3.5164318 1.6651708,3.8759377 l -0.00979,-0.00604 C 1.7418138,3.5211098 1.9455258,3.2457462 2.1301061,2.9463059 l -0.00979,-0.00604 C 1.9804095,3.0886657 1.789123,3.2535931 1.7235228,3.4524413 1.5934385,3.4323636 1.410504,3.3279242 1.3137063,3.2403641 1.48535,2.905503 1.6842682,2.5387378 1.9919155,2.3070629 c 0.053061,-0.039955 0.136078,-0.10485 0.2059483,-0.1024027 0.1512068,0.0053 0.3580139,0.2304564 0.3945031,0.3644226 m 0.062644,-0.1235486 -0.027098,-0.043731 0.027098,0.043731 m 0.9379189,-1.54348744 -0.029378,-0.018109 0.00604,-0.00979 0.023342,0.027902 M 1.6031708,4.1080146 C 1.4857647,4.1365361 1.1309527,4.0270955 1.1383544,3.8755487 l 0.3006079,0.1700158 0.1642085,0.06245 m 1.9910549,-3.97541924 -0.036451,0.3423984 -0.034772,0.1677563 c 0.055811,-0.1533932 0.1323204,-0.348368 0.071223,-0.5101547 z"
       id="path24"
       inkscape:export-xdpi="96"
       inkscape:export-ydpi="96" />
    <circle
       id="path878"
       style="fill:#ffffff;stroke:#000000;stroke-width:0.013647"
       cx="2.4729984"
       cy="4.5771489"
       r="0.00024006134"
       inkscape:export-xdpi="96"
       inkscape:export-ydpi="96" />
    <text
       xml:space="preserve"
       style="font-style:normal;font-weight:normal;font-size:3.175px;line-height:1.25;font-family:sans-serif;fill:#000000;fill-opacity:1;stroke:none;stroke-width:0.264583"
       x="4.683198"
       y="3.623903"
       id="text37"><tspan
         sodipodi:role="line"
         id="tspan35"
         x="4.683198"
         y="3.623903"
         style="font-size:3.175px;fill:#ffffff;stroke-width:0.264583">ahedres</tspan></text>
  </g>
</svg>
