<?xml version="1.0" encoding="UTF-8" standalone="no"?>
<svg
   xmlns:dc="http://purl.org/dc/elements/1.1/"
   xmlns:cc="http://creativecommons.org/ns#"
   xmlns:rdf="http://www.w3.org/1999/02/22-rdf-syntax-ns#"
   xmlns:svg="http://www.w3.org/2000/svg"
   xmlns="http://www.w3.org/2000/svg"
   xmlns:sodipodi="http://sodipodi.sourceforge.net/DTD/sodipodi-0.dtd"
   xmlns:inkscape="http://www.inkscape.org/namespaces/inkscape"
   width="60"
   height="100"
   viewBox="0 0 15.875 26.458334"
   version="1.1"
   id="svg8"
   inkscape:version="1.0.1 (3bc2e813f5, 2020-09-07)"
   sodipodi:docname="pawnWhite.svg">
  <defs
     id="defs2">
    <inkscape:perspective
       sodipodi:type="inkscape:persp3d"
       inkscape:vp_x="0 : 13.229167 : 1"
       inkscape:vp_y="0 : 1000 : 0"
       inkscape:vp_z="26.458333 : 13.229167 : 1"
       inkscape:persp3d-origin="13.229166 : 8.8194447 : 1"
       id="perspective1269" />
  </defs>
  <sodipodi:namedview
     id="base"
     pagecolor="#ffffff"
     bordercolor="#666666"
     borderopacity="1.0"
     inkscape:pageopacity="0.0"
     inkscape:pageshadow="2"
     inkscape:zoom="8.2561463"
     inkscape:cx="0.2175492"
     inkscape:cy="70.525472"
     inkscape:document-units="mm"
     inkscape:current-layer="layer1"
     inkscape:document-rotation="0"
     showgrid="false"
     units="px"
     showguides="true"
     inkscape:guide-bbox="true"
     inkscape:window-width="1920"
     inkscape:window-height="1017"
     inkscape:window-x="-8"
     inkscape:window-y="-8"
     inkscape:window-maximized="1">
    <sodipodi:guide
       position="6.6504176,1.0807784"
       orientation="0,-1"
       id="guide1060" />
    <sodipodi:guide
       position="7.2830947,3.038841"
       orientation="1,0"
       id="guide1062" />
  </sodipodi:namedview>
  <metadata
     id="metadata5">
    <rdf:RDF>
      <cc:Work
         rdf:about="">
        <dc:format>image/svg+xml</dc:format>
        <dc:type
           rdf:resource="http://purl.org/dc/dcmitype/StillImage" />
        <dc:title></dc:title>
      </cc:Work>
    </rdf:RDF>
  </metadata>
  <g
     inkscape:label="Layer 1"
     inkscape:groupmode="layer"
     id="layer1">
    <g
       id="g3682"
       transform="matrix(8.4823965,0,0,8.4823965,-780.58043,-983.09175)">
      <path
         id="path3676"
         style="fill:#cecece;fill-opacity:1;stroke:none;stroke-width:0.264583px;stroke-linecap:butt;stroke-linejoin:miter;stroke-opacity:1"
         d="m 93.009308,117.02465 a 0.40487155,0.40487155 0 0 0 -0.411345,0.36639 0.40487155,0.40487155 0 0 0 0.199472,0.3886 l -0.221691,0.70694 -0.356569,0.004 -0.0031,0.42995 1.569932,-0.003 v -0.42944 h -0.337966 l -0.228409,-0.7183 a 0.40487155,0.40487155 0 0 0 0.184486,-0.30179 0.40487155,0.40487155 0 0 0 -0.364321,-0.44183 0.40487155,0.40487155 0 0 0 -0.03049,-0.002 z" />
      <path
         id="path3678"
         style="fill:#54c5c5;fill-opacity:1;stroke:none;stroke-width:1.01528;stroke-linecap:round;stroke-opacity:1"
         d="m 92.657444,117.21466 a 0.40487155,0.40487155 0 0 0 -0.05995,0.1757 0.40487155,0.40487155 0 0 0 0.199472,0.3886 v 5.2e-4 l -0.0016,0.007 -0.219625,0.70021 -0.356566,0.004 -0.0031,0.42995 0.517282,-0.0119 v -0.40618 h 0.148828 l 0.337447,-0.73277 h -0.0015 z" />
      <path
         id="path3680"
         style="fill:none;fill-opacity:1;stroke:#000000;stroke-width:0.012;stroke-linecap:butt;stroke-linejoin:miter;stroke-miterlimit:4;stroke-dasharray:none;stroke-opacity:1"
         d="m 93.009308,117.02465 a 0.40487155,0.40487155 0 0 0 -0.411345,0.36639 0.40487155,0.40487155 0 0 0 0.199472,0.3886 l -0.221691,0.70694 -0.356569,0.004 -0.0031,0.42995 1.569932,-0.003 v -0.42944 h -0.337966 l -0.228409,-0.7183 a 0.40487155,0.40487155 0 0 0 0.184486,-0.30179 0.40487155,0.40487155 0 0 0 -0.364321,-0.44183 0.40487155,0.40487155 0 0 0 -0.03049,-0.002 z" />
    </g>
  </g>
</svg>
