<?xml version="1.0" encoding="UTF-8" standalone="no"?>
<svg
   xmlns:dc="http://purl.org/dc/elements/1.1/"
   xmlns:cc="http://creativecommons.org/ns#"
   xmlns:rdf="http://www.w3.org/1999/02/22-rdf-syntax-ns#"
   xmlns:svg="http://www.w3.org/2000/svg"
   xmlns="http://www.w3.org/2000/svg"
   xmlns:sodipodi="http://sodipodi.sourceforge.net/DTD/sodipodi-0.dtd"
   xmlns:inkscape="http://www.inkscape.org/namespaces/inkscape"
   width="20"
   height="20"
   viewBox="0 0 5.2916666 5.2916666"
   version="1.1"
   id="svg8"
   inkscape:version="1.0.1 (3bc2e813f5, 2020-09-07)"
   sodipodi:docname="title-logo.svg">
  <defs
     id="defs2" />
  <sodipodi:namedview
     id="base"
     pagecolor="#ffffff"
     bordercolor="#666666"
     borderopacity="1.0"
     inkscape:pageopacity="0.0"
     inkscape:pageshadow="2"
     inkscape:zoom="25.62357"
     inkscape:cx="11.4986"
     inkscape:cy="15.210651"
     inkscape:document-units="mm"
     inkscape:current-layer="layer1"
     inkscape:document-rotation="0"
     showgrid="false"
     inkscape:window-width="1920"
     inkscape:window-height="1017"
     inkscape:window-x="-8"
     inkscape:window-y="-8"
     inkscape:window-maximized="1"
     units="px" />
  <metadata
     id="metadata5">
    <rdf:RDF>
      <cc:Work
         rdf:about="">
        <dc:format>image/svg+xml</dc:format>
        <dc:type
           rdf:resource="http://purl.org/dc/dcmitype/StillImage" />
        <dc:title />
      </cc:Work>
    </rdf:RDF>
  </metadata>
  <g
     inkscape:label="Layer 1"
     inkscape:groupmode="layer"
     id="layer1">
    <path
       style="fill:#4d4d4d;fill-opacity:1;stroke:none;stroke-width:0.0115037"
       d="m 4.0747232,4.5609504 -0.025622,-0.00228 C 4.262679,4.1738075 3.8783747,3.7261303 3.4890372,3.691502 3.4012602,3.683692 3.3146374,3.70073 3.2325193,3.7309898 3.2027533,3.7419657 3.1474373,3.7818282 3.1150361,3.7677471 3.0714631,3.7487931 3.0790821,3.656962 3.0721421,3.61863 3.0381891,3.4309164 2.9735501,3.3358417 2.7905442,3.4315212 2.7488062,3.4533479 2.7089102,3.4788499 2.6707444,3.5063244 2.6031544,3.4309445 2.5061025,3.3904712 2.4422481,3.3070157 2.3236944,3.152085 2.3029516,2.8599183 2.3571011,2.6778495 l 0.1943452,0.2108657 0.086729,0.1018127 -0.1172726,0.3423494 -0.039171,-0.024146 -0.00604,0.00979 0.143134,0.074717 -0.00604,0.00979 -0.064793,-0.026426 -0.00604,0.00979 c 0.1133038,0.102613 0.1812062,0.065131 0.2961927,-0.020126 -0.014837,-0.1104708 0.085692,-0.265883 0.1182638,-0.3730492 0.012339,-0.040624 0.023604,-0.098141 0.056396,-0.1273999 C 3.0765502,2.8089482 3.1843785,2.7990772 3.224369,2.7136595 3.260918,2.6355795 3.161859,2.6094103 3.157066,2.5450369 3.151466,2.4699519 3.225013,2.3413511 3.255722,2.2723068 3.299586,2.2896288 3.3912554,2.3172838 3.4232537,2.2668868 3.4599277,2.20911 3.4120657,2.1402014 3.4511257,2.0818996 3.587302,1.8786092 3.7241593,1.6871713 3.843781,1.4726357 3.891019,1.3879357 3.9659208,1.2825364 3.9597277,1.1800315 3.9513877,1.0417286 3.70921,0.99465648 3.7099885,0.83326914 c 5.928e-4,-0.1252226 0.092802,-0.2625979 0.1729171,-0.3500372 0.036969,-0.040331 0.1274794,-0.111333 0.1365993,-0.1667069 0.00793,-0.04809 -0.1042848,-0.131186 -0.1485187,-0.1162723 -0.071831,0.024213 -0.1555926,0.1875232 -0.1948814,0.2500986 l -0.019585,-0.012073 0.1600295,-0.347304 -0.2554133,-0.089873 -0.1162991,0.3202061 -0.045207,-0.014353 c 0.00952,-0.064972 0.038095,-0.2219248 0.00493,-0.2796282 -0.02645,-0.046011 -0.1608207,-0.036992 -0.1866728,0.00602 -0.02611,0.043432 -0.014755,0.1153327 -0.018007,0.1639934 -0.00843,0.1262424 -0.00992,0.272655 -0.074846,0.3857668 -0.046521,0.081038 -0.1538189,0.034409 -0.2095319,0.1146182 -0.1684017,-0.098921 -0.2089724,0.059761 -0.2537346,0.1949459 -0.087286,0.26360326 -0.087534,0.52639856 -0.1320948,0.79695956 -0.012527,0.076049 -0.1073874,0.091914 -0.1179706,0.1674853 -0.011355,0.081055 0.1036418,0.088251 0.1195051,0.1524224 0.018515,0.074886 -0.07385,0.1987494 -0.09243,0.2727156 -0.080425,-0.00874 -0.1673254,-0.00438 -0.1982652,0.08049 -0.067911,-0.078673 -0.2775358,-0.271876 -0.3893557,-0.2588842 -0.05651,0.00657 -0.1109338,0.053471 -0.1558813,0.084954 -0.116197,0.081389 -0.2328284,0.1642936 -0.3268074,0.2715269 -0.2713385,0.30957 -0.47351071,0.6459242 -0.58498961,1.0448179 -0.032007,0.1145145 -0.096074,0.3136593 -0.047149,0.4291831 0.045172,0.106683 0.26488441,0.1948873 0.36786741,0.2279758 -0.06135,0.095076 -0.20898741,0.1926789 -0.20706171,0.3159614 0.00101,0.06553 0.048042,0.1169796 0.085716,0.1658922 0.10230831,0.1328352 0.23231191,0.248715 0.37395331,0.3360253 0.2919983,0.1799929 0.6407815,0.2969338 0.986478,0.3069449 0.1402606,0.00407 0.3091053,0.00466 0.4121604,-0.1069669 0.086891,-0.094116 0.082633,-0.2785253 0.098242,-0.3989048 0.01411,-0.10883 0.00838,-0.1873063 -0.017133,-0.2943469 0.04384,0.1007806 0.075263,0.1947722 0.1541912,0.2760066 0.2620242,0.2697198 0.6945406,0.2491795 0.9544295,-0.00189 0.054335,-0.052494 0.090031,-0.1359905 0.1295393,-0.2000838 m -0.678501,0.311495 c 0.068879,-0.022042 0.141916,-0.00185 0.2129373,-0.018649 C 3.754416,4.8194269 3.9868658,4.6264001 3.9496869,4.4568598 3.7863622,4.9517284 2.9828138,4.6615439 3.1804821,4.1583856 c 0.029545,-0.075208 0.088026,-0.1402682 0.1491372,-0.191855 0.075239,-0.063514 0.170446,-0.091692 0.2677937,-0.078172 l 0.00604,-0.00979 C 3.3354407,3.7288298 3.0880228,3.8825222 2.931792,4.113194 2.963812,3.9128084 3.3014978,3.7427043 3.4816393,3.7692596 3.8861722,3.8288759 4.1645871,4.2163486 3.989126,4.6027899 3.944062,4.7020389 3.8463786,4.7733402 3.7513312,4.8210761 3.6323173,4.8808501 3.5263346,4.9084811 3.3962137,4.8724481 m 0.3941038,-0.946265 -0.00604,0.00979 C 3.9401961,4.0505863 3.9268829,4.206097 4.0100501,4.3589311 4.0556601,4.18999 3.9270471,4.012035 3.7903139,3.9261828 m -1.0997026,1.2140294 -0.00979,-0.00604 0.071223,-0.5101549 0.051243,0.00456 C 2.7749963,4.7820327 2.7877903,5.0139341 2.6906136,5.1402097 M 2.8365534,4.486921 2.7816854,4.2909357 c 0.048659,0.052007 0.058597,0.126567 0.054868,0.1959853 M 2.7182374,4.481551 C 2.7047066,4.2650467 2.5259338,4.4374716 2.3761756,4.3788069 2.3453049,4.5636038 2.2277307,4.5004535 2.0900633,4.4483499 1.8611186,4.3616842 1.662267,4.2449868 1.4720334,4.0917503 c 0.037,-0.03545 0.1092609,-0.07884 0.1633052,-0.065648 0.09091,0.022201 0.2095392,0.1494749 0.2948928,0.1992365 0.1243928,0.072543 0.2576614,0.088178 0.3909444,0.133079 l 0.00604,-0.00979 C 2.0716413,4.2624929 1.8826346,4.1565265 1.6544695,4.0150166 c 0.064166,-0.030325 0.1208977,0.060104 0.1725361,0.092787 0.169425,0.1072605 0.3373715,0.1575964 0.522072,0.227273 l -0.03233,-0.1010112 -0.00456,0.051243 C 2.0844768,4.2695534 1.8910955,4.112107 1.7079921,3.9939548 c 0.033506,-0.025198 0.067945,-0.043996 0.1098155,-0.024362 0.07713,0.036138 0.1436552,0.1053081 0.2207265,0.1458163 0.092776,0.048769 0.1909743,0.069868 0.2902848,0.099071 L 2.3093661,4.0268113 2.2858931,4.1745054 1.8308696,3.9480756 c 0.1295389,-0.085056 0.2621853,-0.052562 0.3891656,0.00443 0.042573,0.019108 0.1190392,0.047094 0.1400685,0.092449 0.041084,0.088609 -0.049195,0.2291905 0.044801,0.3091724 0.088301,0.075147 0.2683463,-0.046575 0.3609614,-0.059432 l -0.033938,0.033134 c 0.027431,0.053977 0.022268,0.1052546 -0.01368,0.1537309 M 2.2398969,5.2137281 C 1.8580537,5.142571 1.5047525,5.021669 1.2029561,4.7694195 1.1114102,4.6928943 0.96280129,4.6038432 0.96664639,4.4688746 0.96961639,4.3644868 1.092921,4.2554942 1.1592084,4.1827057 l 0.00979,0.00604 -0.1621784,0.1973301 0.1855296,-0.1800982 0.23139,-0.035882 c 0.2530212,0.25344 0.5839203,0.3197489 0.9002544,0.4468232 l -0.00604,0.00979 C 2.0989662,4.5918384 1.9087831,4.5563773 1.7084026,4.4536703 l -0.00604,0.00979 0.4512672,0.2106012 C 2.1309458,4.7735385 2.1413518,4.9480217 2.0658238,5.025344 2.0021268,5.090554 1.9070982,5.066112 1.8323382,5.041826 1.6450924,4.9810003 1.4729535,4.9031343 1.3057043,4.800039 l -0.00604,0.00979 C 1.471526,4.9157676 1.6427691,5.0181492 1.8374661,5.0773524 1.9483316,5.1110704 2.157146,5.1323544 2.2398933,5.2137257 M 3.053332,3.8502654 2.8934336,4.0219738 2.8640556,4.003864 C 2.8925416,3.9579365 2.9902484,3.8091633 3.053332,3.8502653 M 2.8179132,4.23218 2.7983282,4.220107 2.8104012,4.200522 2.8299862,4.212595 2.8179132,4.23218 M 2.7312552,4.219303 C 2.6424232,4.268992 2.5276091,4.324044 2.4244666,4.300466 l 0.3030323,-0.096992 0.00376,0.015829 M 2.5347291,3.9900521 c 0.040658,-0.079331 0.072276,-0.1610977 0.1192514,-0.2373044 0.028613,-0.046417 0.057456,-0.090206 0.091511,-0.1327814 0.040099,-0.050121 0.094447,-0.130134 0.1679898,-0.1300717 0.079957,6.12e-5 0.1007677,0.1797512 0.092463,0.2365648 -0.00747,0.051073 -0.055434,0.085479 -0.088706,0.1209968 -0.098987,0.1056459 -0.2277322,0.190138 -0.382509,0.1425959 m 0.6483425,-1.3075653 -0.00451,-0.00729 0.00451,0.00729 m -0.013587,0.036665 -0.021865,0.013549 -0.00979,-0.00604 0.031658,-0.00751 m -0.4398519,0.6477936 0.1442008,-0.3435481 0.019585,0.012073 c -0.039688,0.071158 -0.07421,0.32688 -0.1637861,0.3314754 m -0.3267683,0.595877 -0.1823046,-0.098862 0.00604,-0.00979 0.1762682,0.1086545 m 0.7228892,-1.2165726 -0.00376,-0.015829 0.00376,0.015829 m -0.021865,0.013549 -0.00376,-0.015829 0.00376,0.015829 m -0.021865,0.013549 -0.00376,-0.015829 0.00376,0.015829 m 0.3040987,-0.515258 -0.014221,-0.1303887 0.014221,0.1303887 m -0.8126312,1.29639 C 2.4435904,3.586797 2.3662716,3.6844753 2.2495496,3.7273645 2.2110026,3.7415363 2.1629966,3.7199305 2.1244923,3.7128993 2.0293823,3.6955157 1.9006773,3.7151403 1.8165831,3.6643432 1.7005755,3.5942669 1.6833664,3.4443466 1.7175571,3.3241643 1.7776471,3.1129466 1.8979296,2.9558726 2.0459208,2.7968385 2.1033068,2.7351577 2.1548866,2.6591541 2.2373165,2.6310323 c 0.00719,0.223476 0.010596,0.5336436 0.1313331,0.729623 0.051626,0.083783 0.151216,0.1148338 0.2048485,0.1938266 m 0.060402,-0.1564577 -0.00451,-0.00729 0.00451,0.00729 M 3.293566,2.0794118 C 3.5949329,1.9111769 3.7129013,1.4998912 3.8760108,1.222216 3.9056048,1.29156 3.8266278,1.382346 3.7986058,1.4447744 3.7175018,1.6254984 3.6113363,1.8010171 3.4875636,1.9557506 3.4328246,2.0241856 3.3925976,2.1094162 3.2935656,2.0794118 M 3.0278337,2.6858853 C 2.9859257,2.6775793 2.9315377,2.6527566 2.8891268,2.6620602 2.8234578,2.6764732 2.7809214,2.7443618 2.7117803,2.7554856 2.5749707,2.7774926 2.3986731,2.6133327 2.3414104,2.5060074 l 0.00604,-0.00979 0.036891,0.049768 0.00604,-0.00979 -0.054196,-0.087462 0.00148,0.041451 -0.04588,-0.1228764 0.5062671,0.2309902 0.00604,-0.00979 -0.5100234,-0.2468189 c 0.1119561,-0.037854 0.1415657,0.041439 0.2308241,0.085918 0.1494149,0.07448 0.3009395,0.1233958 0.4585514,0.1768613 l -0.00604,0.00979 -0.1672794,-0.035546 -0.00604,0.00979 0.2237556,0.097386 M 3.8978831,1.2086679 c -0.04908,-0.02004 -0.056985,-0.046217 -0.048159,-0.097254 0.038291,0.027808 0.050118,0.049815 0.048159,0.097254 M 3.238442,2.2346178 C 3.034378,2.1768432 2.8212263,2.1124804 2.6394808,2.0005438 2.5921608,1.9714016 2.4994817,1.936219 2.4701134,1.8879943 2.4440714,1.8452253 2.5624784,1.7706853 2.5648754,1.7113109 2.5766284,1.4199183 2.5977684,1.0425543 2.7526808,0.78652914 l 0.1370975,0.084509 0.012073,-0.019585 -0.1529267,-0.080753 c 0.056503,-0.081316 0.1047321,-0.038587 0.1816372,-0.00967 0.1307272,0.049157 0.2563157,0.1104201 0.3851866,0.164342 0.072418,0.0303 0.1410684,0.049151 0.1044425,0.13748486 L 2.9274732,0.85373194 2.9154002,0.87331694 C 3.1326375,1.004757 3.4081094,1.1054095 3.6537392,1.1662788 l -0.00604,0.00979 -0.2283157,-0.046142 C 3.3779065,1.3525372 3.3052558,1.6033369 3.1942986,1.8019971 l -0.00979,-0.00604 0.1511725,-0.5960088 -0.00979,-0.00604 C 3.2591361,1.3919774 3.2026324,1.598298 3.1472125,1.7999891 3.1330085,1.8517071 3.1204195,1.9876639 3.0644965,2.0116524 2.9912135,2.0430878 2.7817773,1.9118393 2.7179556,1.8732284 l -0.00604,0.00979 c 0.086333,0.05223 0.1755742,0.1170376 0.2654287,0.1613175 0.052414,0.025835 0.1201911,0.039547 0.1081699,0.1095158 -0.1845696,-0.042419 -0.3715828,-0.1344545 -0.531889,-0.23327 l -0.00604,0.00979 0.4734121,0.2185213 0.2174395,0.085709 M 2.4326457,3.4541273 C 2.2622919,3.3102933 2.2901792,3.0909412 2.2182735,2.9030626 c -0.00988,0.2222925 0.036558,0.4181053 0.2022994,0.5706501 l 0.012073,-0.019585 m 1.3070732,-2.3835095 -0.00376,-0.015829 0.00376,0.015829 m -0.00751,-0.031659 -0.018781,-0.079145 0.018781,0.079145 M 2.8146798,2.5274468 2.4734121,2.3576243 2.587431,2.0630401 2.8985167,2.2818259 2.8146797,2.5274468 m 0.3773395,-0.6998407 -0.00376,-0.015829 0.00376,0.015829 m 0.4377031,-0.7977672 -0.029378,-0.018109 0.00604,-0.00979 0.023342,0.027902 M 1.8972856,3.8403413 1.453268,4.0125907 1.443478,4.0065507 C 1.537203,3.9390807 1.7814309,3.7742056 1.8972883,3.840338 m 1.7634263,-2.92653546 -0.039171,-0.024146 0.00604,-0.00979 0.045207,0.014353 -0.012073,0.019585 m -0.076193,0.10168336 -0.039171,-0.024146 0.00604,-0.00979 0.033135,0.033939 m 0.055132,-0.15520696 -0.078404,-0.092364 -0.2959977,-0.111397 c 0.065718,0.045597 0.1947316,0.047089 0.2154388,0.1328004 -0.065692,-0.024791 -0.2875443,-0.065853 -0.3174863,-0.1297213 -0.016539,-0.035276 0.022079,-0.1057952 0.03292,-0.1402856 0.030149,-0.095999 0.046057,-0.1914994 0.052753,-0.2918086 0.00283,-0.042453 -0.01099,-0.1157902 0.013929,-0.1523148 0.023824,-0.0349 0.078758,-0.021485 0.1121662,-0.013203 -0.00137,0.056965 -0.057114,0.3364143 0.062519,0.3018033 0.076726,-0.0222 0.1197865,-0.250318 0.1507713,-0.3189771 0.041758,0.00848 0.1238622,0.017631 0.1438808,0.062237 0.050172,0.1117906 -0.2351004,0.3441951 -0.022876,0.3772204 -0.044306,0.021738 -0.081041,0.00169 -0.1220724,-0.021193 L 3.7253676,0.12932544 C 3.5363774,0.01831214 3.5280657,0.28412744 3.4576181,0.41022934 3.3130867,0.35566934 3.3299294,0.23098644 3.3568706,0.09136804 l -0.085182,0.028574 0.063316,-0.015025 0.010572,0.2701473 0.1195535,0.066823 0.1283717,-0.3397914 0.1099996,0.040778 c -0.043911,0.078625 -0.1205899,0.2231213 -0.1216087,0.3138465 -0.00196,0.1745611 0.180254,0.034184 0.2246366,-0.020607 l 0.00979,0.00604 c -0.064682,0.1047784 -0.1860726,0.2507811 -0.1683463,0.3827183 0.0465,-0.1850938 0.1511027,-0.3518947 0.2859899,-0.4858778 l -0.082098,-0.06412 c 0.039077,-0.040835 0.089287,0.014443 0.1197923,0.046815 -0.1648843,0.1637929 -0.2164157,0.3475566 -0.3320007,0.5385976 m -0.1101309,0.13481764 -0.2237559,-0.097386 0.00604,-0.00979 0.2177194,0.1071785 m -1.1120388,1.58480682 -0.015829,0.00376 0.015829,-0.00376 m -0.022091,-0.022631 -0.00854,-7.47e-4 0.00854,7.47e-4 m 1.1335882,-1.84629546 -0.1710354,-0.051375 0.1710354,0.051375 m -0.072437,0.1175119 -0.3691694,-0.1464807 0.00604,-0.00979 0.375206,0.1366883 -0.012073,0.019585 m -0.073913,0.076061 -0.4279256,-0.1826994 c 0.079205,-0.100606 0.3567822,0.07483 0.4603877,0.1081143 l -0.032462,0.074585 M 2.2795919,2.5624792 C 2.1158523,2.6093862 2.0142025,2.7483775 1.9095589,2.8749289 1.6550579,3.182702 1.5146685,3.5098286 1.3524011,3.8693345 l -0.00979,-0.00604 C 1.4290441,3.5145066 1.6327561,3.239143 1.8173364,2.9397027 l -0.00979,-0.00604 C 1.6676398,3.0820625 1.4763533,3.2469899 1.4107531,3.4458381 1.2806688,3.4257604 1.0977343,3.321321 1.0009366,3.2337609 1.1725803,2.8988998 1.3714985,2.5321346 1.6791458,2.3004597 1.7322068,2.2605047 1.8152238,2.1956097 1.8850941,2.198057 2.0363009,2.203357 2.243108,2.4285134 2.2795972,2.5624796 M 2.3422412,2.438931 2.3151432,2.3952 2.3422412,2.438931 m 0.9379189,-1.54348746 -0.029378,-0.018109 0.00604,-0.00979 0.023342,0.027902 M 1.2904011,4.1014114 C 1.172995,4.1299329 0.81818299,4.0204923 0.82558469,3.8689455 l 0.30060791,0.1700158 0.1642085,0.06245 M 3.281456,0.12599204 3.245005,0.46839044 3.210233,0.63614674 c 0.055811,-0.1533932 0.1323204,-0.348368 0.071223,-0.5101547 z"
       id="path24"
       inkscape:export-xdpi="96"
       inkscape:export-ydpi="96" />
    <circle
       id="path878"
       style="fill:#000000;stroke:#000000;stroke-width:0.013647"
       cx="2.4729984"
       cy="4.5771489"
       r="0.00024006134"
       inkscape:export-xdpi="96"
       inkscape:export-ydpi="96" />
    <text
       xml:space="preserve"
       style="font-style:normal;font-weight:normal;font-size:3.175px;line-height:1.25;font-family:sans-serif;fill:#000000;fill-opacity:1;stroke:none;stroke-width:0.264583"
       x="6.5882497"
       y="3.6523366"
       id="text37"><tspan
         sodipodi:role="line"
         id="tspan35"
         x="6.5882497"
         y="3.6523366"
         style="font-size:3.175px;fill:#ffffff;stroke-width:0.264583">ahedres</tspan></text>
  </g>
</svg>
